<svg preserveAspectRatio="none" width="100%" height="100%" overflow="visible" style="display: block;" viewBox="0 0 30 30" fill="none" xmlns="http://www.w3.org/2000/svg">
<g id="react-icons/AiOutlineInstagram">
<path id="Vector" d="M15 8.99121C11.6748 8.99121 8.99121 11.6748 8.99121 15C8.99121 18.3252 11.6748 21.0088 15 21.0088C18.3252 21.0088 21.0088 18.3252 21.0088 15C21.0088 11.6748 18.3252 8.99121 15 8.99121ZM15 18.9053C12.8496 18.9053 11.0947 17.1504 11.0947 15C11.0947 12.8496 12.8496 11.0947 15 11.0947C17.1504 11.0947 18.9053 12.8496 18.9053 15C18.9053 17.1504 17.1504 18.9053 15 18.9053ZM21.2549 7.34473C20.4785 7.34473 19.8516 7.97168 19.8516 8.74805C19.8516 9.52441 20.4785 10.1514 21.2549 10.1514C22.0313 10.1514 22.6582 9.52734 22.6582 8.74805C22.6584 8.5637 22.6223 8.38111 22.5519 8.21075C22.4814 8.04038 22.3781 7.88559 22.2477 7.75523C22.1173 7.62488 21.9625 7.52152 21.7922 7.45108C21.6218 7.38064 21.4392 7.3445 21.2549 7.34473ZM26.7129 15C26.7129 13.3828 26.7275 11.7803 26.6367 10.166C26.5459 8.29102 26.1182 6.62695 24.7471 5.25586C23.373 3.88184 21.7119 3.45703 19.8369 3.36621C18.2197 3.27539 16.6172 3.29004 15.0029 3.29004C13.3857 3.29004 11.7832 3.27539 10.1689 3.36621C8.29395 3.45703 6.62988 3.88477 5.25879 5.25586C3.88477 6.62988 3.45996 8.29102 3.36914 10.166C3.27832 11.7832 3.29297 13.3857 3.29297 15C3.29297 16.6143 3.27832 18.2197 3.36914 19.834C3.45996 21.709 3.8877 23.373 5.25879 24.7441C6.63281 26.1182 8.29395 26.543 10.1689 26.6338C11.7861 26.7246 13.3887 26.71 15.0029 26.71C16.6201 26.71 18.2227 26.7246 19.8369 26.6338C21.7119 26.543 23.376 26.1152 24.7471 24.7441C26.1211 23.3701 26.5459 21.709 26.6367 19.834C26.7305 18.2197 26.7129 16.6172 26.7129 15ZM24.1348 21.9082C23.9209 22.4414 23.6631 22.8398 23.25 23.25C22.8369 23.6631 22.4414 23.9209 21.9082 24.1348C20.3672 24.7471 16.708 24.6094 15 24.6094C13.292 24.6094 9.62988 24.7471 8.08887 24.1377C7.55566 23.9238 7.15723 23.666 6.74707 23.2529C6.33398 22.8398 6.07617 22.4443 5.86231 21.9111C5.25293 20.3672 5.39063 16.708 5.39063 15C5.39063 13.292 5.25293 9.62988 5.86231 8.08887C6.07617 7.55566 6.33398 7.15723 6.74707 6.74707C7.16016 6.33691 7.55566 6.07617 8.08887 5.86231C9.62988 5.25293 13.292 5.39063 15 5.39063C16.708 5.39063 20.3701 5.25293 21.9111 5.86231C22.4443 6.07617 22.8428 6.33398 23.2529 6.74707C23.666 7.16016 23.9238 7.55566 24.1377 8.08887C24.7471 9.62988 24.6094 13.292 24.6094 15C24.6094 16.708 24.7471 20.3672 24.1348 21.9082Z" fill="var(--fill-0, black)"/>
</g>
</svg>
